<?xml version="1.0" standalone="no"?>
<!DOCTYPE svg PUBLIC "-//W3C//DTD SVG 20010904//EN"
 "http://www.w3.org/TR/2001/REC-SVG-20010904/DTD/svg10.dtd">
<svg version="1.0" xmlns="http://www.w3.org/2000/svg"
 width="440.000000pt" height="440.000000pt" viewBox="0 0 440.000000 440.000000"
 preserveAspectRatio="xMidYMid meet">
<metadata>
Created by potrace 1.14, written by Peter Selinger 2001-2017
</metadata>
<g transform="translate(0.000000,440.000000) scale(0.100000,-0.100000)"
fill="#000000" stroke="none">
<path d="M827 3084 c-83 -18 -225 -79 -304 -130 -68 -45 -200 -174 -237 -233
-101 -159 -138 -282 -138 -451 0 -136 18 -224 67 -326 168 -349 557 -508 1014
-414 73 15 252 77 268 94 6 6 41 400 36 409 -2 4 -14 7 -27 7 -18 0 -43 -32
-127 -156 -96 -145 -108 -159 -158 -185 -114 -58 -288 -65 -392 -15 -188 89
-299 312 -299 604 0 320 121 556 335 651 17 8 73 16 126 19 107 5 184 -12 232
-51 14 -12 73 -98 130 -192 96 -157 106 -170 135 -173 l31 -3 -4 48 c-3 26
-10 127 -16 223 -5 96 -13 178 -17 181 -20 18 -203 82 -268 95 -96 18 -298 17
-387 -2z"/>
<path d="M2917 3073 c-2 -4 -91 -231 -197 -503 -106 -272 -196 -498 -200 -503
-3 -4 -65 190 -137 430 l-130 438 86 38 c100 45 111 53 111 78 0 18 -15 19
-375 19 l-375 0 0 -25 c0 -21 13 -31 90 -70 l89 -45 41 -127 c22 -71 123 -389
223 -708 l183 -580 73 0 73 0 212 512 c116 282 214 513 217 513 3 0 96 -226
207 -502 112 -277 206 -509 211 -516 5 -9 28 -12 77 -10 l69 3 160 500 c88
275 190 595 228 712 l67 212 80 42 c65 35 80 47 80 66 l0 23 -271 0 -270 0 3
-26 c3 -22 17 -32 96 -67 50 -22 92 -46 92 -51 0 -16 -251 -850 -259 -858 -3
-3 -95 222 -203 500 l-197 507 -74 3 c-42 2 -77 -1 -80 -5z"/>
</g>
</svg>
